# xmcd
#
# Track frame offsets:
#	150
#	11643
#	28736
#	48360
#	75883
#	98800
#	117201
#	137225
#	164508
#	188205
#	210307
#	230683
#	252651
#
# Disc length: 3641 seconds
#
# Revision: 0
# Processed by: cddbd v1.5.1PL2 Copyright (c) Steve Scherf et al.
# Submitted via: audiograbber 1.83.01
#
DISCID=aa0e370d
DTITLE=Bruce Springsteen - We Shall Overcome: The Seeger Sessions
DYEAR=2006
DGENRE=Country
TTITLE0=Old Dan Tucker
TTITLE1=Jesse James
TTITLE2=Mrs. Mcgrath
TTITLE3=O Mary Don't You Weep
TTITLE4=John Henry
TTITLE5=Erie Canal
TTITLE6=Jacob's Ladder
TTITLE7=My Oklahoma Home
TTITLE8=Eyes On the Prize
TTITLE9=Shenandoah
TTITLE10=Pay Me My Money Down
TTITLE11=We Shall Overcome
TTITLE12=Froggie Went a Courtin
EXTD=
EXTT0=
EXTT1=
EXTT2=
EXTT3=
EXTT4=
EXTT5=
EXTT6=
EXTT7=
EXTT8=
EXTT9=
EXTT10=
EXTT11=
EXTT12=
PLAYORDER=
